HIERARCHY
ROOT Hips
{
	OFFSET 0.000000 0.000000 0.000000
	CHANNELS 6 Xposition Yposition Zposition Zrotation Yrotation Xrotation 
	JOINT LHipJoint
	{
		OFFSET 0.000000 0.000000 0.000000
		CHANNELS 3 Zrotation Yrotation Xrotation
		JOINT LeftUpLeg
		{
			OFFSET 1.363060 -1.794630 0.839290
			CHANNELS 3 Zrotation Yrotation Xrotation
			JOINT LeftLeg
			{
				OFFSET 2.448110 -6.726130 0.000000
				CHANNELS 3 Zrotation Yrotation Xrotation
				JOINT LeftFoot
				{
					OFFSET 2.562200 -7.039590 0.000000
					CHANNELS 3 Zrotation Yrotation Xrotation
					JOINT LeftToeBase
					{
						OFFSET 0.157640 -0.433110 2.322550
						CHANNELS 3 Zrotation Yrotation Xrotation
						End Site
						{
							OFFSET 0.000000 0.000000 0.000000
						}
					}
				}
			}
		}
	}
	JOINT RHipJoint
	{
		OFFSET 0.000000 0.000000 0.000000
		CHANNELS 3 Zrotation Yrotation Xrotation
		JOINT RightUpLeg
		{
			OFFSET -1.305520 -1.794630 0.839290
			CHANNELS 3 Zrotation Yrotation Xrotation
			JOINT RightLeg
			{
				OFFSET -2.542530 -6.985550 0.000000
				CHANNELS 3 Zrotation Yrotation Xrotation
				JOINT RightFoot
				{
					OFFSET -2.568260 -7.056230 0.000000
					CHANNELS 3 Zrotation Yrotation Xrotation
					JOINT RightToeBase
					{
						OFFSET -0.164730 -0.452590 2.363150
						CHANNELS 3 Zrotation Yrotation Xrotation
						End Site
						{
							OFFSET 0.000000 0.000000 0.000000
						}
					}
				}
			}
		}
	}
}
MOTION
Frames: 21
Frame Time: 0.008333
-1.126948 15.518016 -0.589901 -125.472901 80.873687 -99.689071 -9.379050 -2.424161 -1.348869 -19.521335 2.242794 -71.381523 -1.642120 3.857093 53.311721 3.685678 12.368606 -22.475484 -2.924100 0.000000 -3.315800 9.789633 -3.296667 -7.269351 13.987872 -21.807244 -28.320401 0.811251 -5.286000 61.199769 -0.455405 -0.877970 -0.676361 -0.142300 0.000000 -83.097900
-0.929206 15.454860 -0.616381 -124.321351 80.633403 -99.124003 -9.420205 -2.560133 -1.504139 -18.930109 2.605606 -71.198149 -1.390639 4.011528 55.764587 3.680013 12.616304 -22.919399 -3.105700 0.000000 -1.266700 9.979247 -3.302475 -7.284601 13.357735 -22.115077 -27.918729 0.520323 -5.378166 62.694731 -0.475603 -0.828475 1.675757 -0.143600 -0.000001 -83.536200
-0.734157 15.393217 -0.642357 -123.420445 80.431685 -98.790870 -9.449971 -2.667179 -1.670946 -18.467645 2.951820 -70.929887 -1.168807 4.147889 58.082155 3.691574 12.887762 -23.530181 176.659800 0.000000 -0.238900 10.168744 -3.276012 -7.290586 12.692982 -22.323488 -27.609221 0.228748 -5.463801 64.254008 -0.524330 -0.834176 4.059732 -0.134700 0.000000 -83.348500
-0.541814 15.334185 -0.667829 -122.831383 80.274735 -98.748670 -9.469887 -2.743896 -1.845480 -18.132203 3.261296 -70.551665 -0.978831 4.263145 60.220397 3.728403 13.210889 -24.332540 176.356900 -0.000000 -1.371700 10.354136 -3.219472 -7.290366 11.996264 -22.441591 -27.388140 -0.053527 -5.543660 65.852644 -0.596035 -0.881706 6.388834 -0.120699 -0.000000 -82.545100
-0.352420 15.278107 -0.693773 -122.516456 80.140539 -98.951431 -9.488848 -2.798555 -2.020178 -17.882775 3.530768 -70.074114 -0.817645 4.358008 62.165010 3.792123 13.598106 -25.308822 175.983200 0.000000 -2.097700 10.524183 -3.144374 -7.281032 11.320242 -22.451254 -27.258186 -0.319248 -5.618785 67.471640 -0.685110 -0.989802 8.537269 -0.115400 -0.000000 -81.076400
-0.165920 15.225485 -0.720578 -122.470604 80.021940 -99.392604 -9.511477 -2.835083 -2.190522 -17.696027 3.755159 -69.494627 -0.683324 4.432877 63.907019 3.882202 14.053807 -26.436884 175.537300 0.000000 -2.495700 10.674716 -3.057575 -7.263627 10.684977 -22.358141 -27.219072 -0.565133 -5.691866 69.095120 -0.783568 -1.168897 10.393101 -0.132299 0.000000 -79.027000
0.017708 15.176582 -0.748863 -122.658526 79.905657 -100.035069 -9.544055 -2.859098 -2.351621 -17.541301 3.936717 -68.821420 -0.572773 4.489569 65.449916 3.994162 14.568326 -27.678802 175.025700 -0.000000 -2.635600 10.800606 -2.967054 -7.237941 10.118145 -22.164801 -27.272172 -0.791607 -5.765022 70.709242 -0.884519 -1.440856 11.854456 -0.186800 0.000000 -76.501400
0.198532 15.131537 -0.778994 -123.038613 79.781397 -100.836615 -9.590673 -2.874810 -2.500052 -17.394092 4.080694 -68.067151 -0.482658 4.530650 66.805585 4.120789 15.121492 -28.987293 174.462200 -0.000001 -2.582000 10.899676 -2.878153 -7.203971 9.638558 -21.877551 -27.420092 -1.001774 -5.839806 72.303420 -0.983095 -1.828298 12.846943 -0.290901 -0.000000 -73.672599
0.376690 15.090422 -0.811318 -123.563673 79.639776 -101.749273 -9.654487 -2.885301 -2.633146 -17.234692 4.195366 -67.249112 -0.409642 4.559302 67.991527 4.253023 15.684726 -30.311846 173.867900 0.000000 -2.401200 10.970717 -2.794561 -7.161132 9.260947 -21.503547 -27.665443 -1.199399 -5.916394 73.867002 -1.076866 -2.349156 13.327007 -0.449499 -0.000000 -70.691999
0.552301 15.053240 -0.845962 -124.191501 79.474404 -102.730097 -9.736706 -2.892100 -2.749550 -17.051199 4.290598 -66.387563 -0.350835 4.579028 69.028467 4.381190 16.224457 -31.605189 173.268800 -0.000000 -2.153700 11.014158 -2.717610 -7.108598 8.992557 -21.051107 -28.010780 -1.387472 -5.993867 75.389512 -1.165765 -3.011210 13.284738 -0.657001 -0.000000 -67.696600
0.725467 15.019948 -0.882836 -124.891714 79.282470 -103.748787 -9.836649 -2.895292 -2.849122 -16.840223 4.376200 -65.503635 -0.303942 4.593237 69.937510 4.496256 16.706705 -32.827237 172.693400 0.000000 -1.887100 11.031700 -2.646694 -7.045611 8.833245 -20.530350 -28.457790 -1.567195 -6.070598 76.859549 -1.251281 -3.807444 12.740602 -0.896701 -0.000000 -64.757300
0.896325 14.990531 -0.921683 -125.649834 79.063699 -104.790240 -9.952132 -2.893733 -2.932868 -16.605891 4.462002 -64.616970 -0.267323 4.604997 70.738781 4.590931 17.101396 -33.948612 172.168600 -0.000000 -1.631300 11.026000 -2.579903 -6.971228 8.776186 -19.952149 -29.006663 -1.737709 -6.144491 78.263633 -1.335837 -4.716692 11.743336 -1.142399 -0.000000 -61.935900
1.064965 14.964947 -0.962134 -126.466949 78.819609 -105.855994 -10.079790 -2.885721 -3.002745 -16.357980 4.556225 -63.743983 -0.239980 4.616658 71.448942 4.660455 17.386134 -34.952293 171.716000 -0.000000 -1.396700 11.000308 -2.514563 -6.885106 8.808937 -19.329176 -29.655218 -1.896570 -6.213596 79.587509 -1.421821 -5.705077 10.362787 -1.363900 -0.000000 -59.233500
1.231564 14.943168 -1.003662 -127.359078 78.554482 -106.962811 -10.215558 -2.869038 -3.061369 -16.110137 4.665328 -62.895560 -0.221492 4.629791 72.080434 4.702953 17.549063 -35.833121 171.349100 0.000000 -1.177800 10.958185 -2.447521 -6.787117 8.914289 -18.674478 -30.399032 -2.040494 -6.276146 80.815739 -1.510942 -6.730296 8.686158 -1.532299 -0.000000 -56.643500
1.396212 14.925173 -1.045762 -128.347503 78.271215 -108.134090 -10.355284 -2.842031 -3.111845 -15.875911 4.793764 -62.077583 -0.211722 4.645129 72.641569 4.719242 17.589346 -36.596379 171.072200 -0.000000 -0.958100 10.903021 -2.375814 -6.678047 9.073767 -18.001781 -31.231484 -2.166161 -6.330957 81.933383 -1.603556 -7.746689 6.808709 -1.626400 -0.000000 -54.146800
1.559049 14.910906 -1.088003 -129.453172 77.971576 -109.393333 -10.495254 -2.803389 -3.157245 -15.667701 4.943484 -61.289649 -0.210640 4.662555 73.136522 4.712508 17.517425 -37.254627 170.880700 0.000001 -0.716000 10.837852 -2.297178 -6.559123 9.268696 -17.323902 -32.142623 -2.270952 -6.377299 82.927060 -1.698304 -8.709784 4.825369 -1.635900 0.000000 -51.729999
1.720184 14.900328 -1.129873 -130.696342 77.658110 -110.764976 -10.632269 -2.752402 -3.200593 -15.494266 5.114220 -60.525518 -0.218270 4.681411 73.566390 4.687418 17.351997 -37.824607 170.763000 -0.000000 -0.429601 10.765271 -2.209693 -6.432130 9.481647 -16.652081 -33.120767 -2.353312 -6.414868 83.784944 -1.792278 -9.580406 2.825226 -1.562600 -0.000000 -49.413800
1.879778 14.893310 -1.171186 -132.082846 77.328846 -112.259244 -10.764390 -2.689522 -3.244288 -15.358571 5.303815 -59.776237 -0.234328 4.700629 73.930656 4.649279 17.116742 -38.323694 170.703900 0.000000 -0.079300 10.686945 -2.112783 -6.299375 9.699711 -15.995387 -34.152289 -2.412668 -6.443844 84.499075 -1.881139 -10.326071 0.878480 -1.417900 0.000000 -47.193700
2.038007 14.889751 -1.211768 -133.610040 76.982617 -113.877424 -10.890223 -2.615371 -3.290171 -15.260705 5.508198 -59.029718 -0.258412 4.718857 74.227302 4.603330 16.836999 -38.767087 -9.313000 -0.000000 -0.349300 10.604330 -2.006280 -6.163263 9.911582 -15.360803 -35.223843 -2.449232 -6.464815 85.064910 -1.959959 -10.922118 -0.965201 -1.219100 0.000000 -45.073200
2.194892 14.889487 -1.251714 -135.255348 76.613132 -115.602847 -11.010426 -2.532391 -3.339578 -15.190111 5.723928 -58.273421 -0.289624 4.734999 74.455806 4.553490 16.534511 -39.165788 -9.301500 0.000000 -0.870900 10.517217 -1.891455 -6.025802 10.115259 -14.747967 -36.319037 -2.463719 -6.477838 85.479213 -2.024885 -11.357942 -2.670568 -0.987000 -0.000000 -43.120700
2.350645 14.892323 -1.291053 -136.993847 76.218726 -117.413305 -11.125070 -2.442252 -3.392752 -15.138479 5.945308 -57.497772 -0.326929 4.748052 74.616213 4.502581 16.226603 -39.524881 -9.271600 0.000000 -1.490500 10.426170 -1.769308 -5.888872 10.307652 -14.157495 -37.427337 -2.457162 -6.483855 85.746004 -2.072505 -11.627757 -4.232574 -0.738801 -0.000000 -41.303399
